<?xml version="1.0" encoding="UTF-8"?>
<svg id="b" data-name="Layer_2" xmlns="http://www.w3.org/2000/svg" viewBox="0 0 1443 102">
  <g id="c" data-name="Logos">
    <g>
      <g>
        <rect x="1.5" y="1.5" width="99" height="99" rx="7.5" ry="7.5" fill="#f2f4f9"/>
        <path d="M93,3c3.31,0,6,2.69,6,6v84c0,3.31-2.69,6-6,6H9c-3.31,0-6-2.69-6-6V9c0-3.31,2.69-6,6-6h84M93,0H9C4.04,0,0,4.04,0,9v84c0,4.96,4.04,9,9,9h84c4.96,0,9-4.04,9-9V9c0-4.96-4.04-9-9-9h0Z" fill="#1d2126"/>
      </g>
      <g>
        <path d="M51,84.5c-18.47,0-33.5-15.03-33.5-33.5s15.03-33.5,33.5-33.5,33.5,15.03,33.5,33.5-15.03,33.5-33.5,33.5Z" fill="#f2f4f9"/>
        <path d="M51,19c17.67,0,32,14.33,32,32s-14.33,32-32,32-32-14.33-32-32,14.33-32,32-32M51,16c-19.3,0-35,15.7-35,35s15.7,35,35,35,35-15.7,35-35-15.7-35-35-35h0Z" fill="#1d2126"/>
      </g>
      <g>
        <path d="M51,64.5c-7.44,0-13.5-6.06-13.5-13.5s6.06-13.5,13.5-13.5,13.5,6.06,13.5,13.5-6.06,13.5-13.5,13.5Z" fill="#f2f4f9"/>
        <path d="M51,39c6.63,0,12,5.37,12,12s-5.37,12-12,12-12-5.37-12-12,5.37-12,12-12M51,36c-8.27,0-15,6.73-15,15s6.73,15,15,15,15-6.73,15-15-6.73-15-15-15h0Z" fill="#1d2126"/>
      </g>
      <g>
        <path d="M158.88,16.98h11.91v29.3l30.89.09v-29.39h12v70.08h-12v-30.14l-30.89-.09v30.23h-11.91V16.98Z" fill="#f2f4f9"/>
        <path d="M248.52,38.41c7.25,0,13.16,2.33,17.72,6.98,4.56,4.66,6.84,10.64,6.84,17.95s-2.28,13.25-6.84,17.91c-4.56,4.66-10.47,6.98-17.72,6.98s-13.25-2.33-17.81-6.98c-4.56-4.66-6.84-10.62-6.84-17.91s2.28-13.34,6.84-17.98c4.56-4.64,10.5-6.96,17.81-6.96ZM248.52,78.02c3.87,0,7.02-1.37,9.45-4.1,2.42-2.73,3.63-6.29,3.63-10.66s-1.21-7.91-3.63-10.62c-2.42-2.7-5.57-4.05-9.45-4.05s-7.17,1.35-9.61,4.05c-2.44,2.7-3.66,6.24-3.66,10.62s1.22,7.93,3.66,10.66c2.44,2.74,5.64,4.1,9.61,4.1Z" fill="#f2f4f9"/>
        <path d="M354.06,56.92v30.14h-11.02v-28.41c0-3.28-.84-5.84-2.53-7.69-1.69-1.84-3.98-2.77-6.89-2.77-3.09,0-5.56,1.01-7.41,3.02s-2.77,4.84-2.77,8.46v27.38h-11.16v-28.41c0-3.28-.82-5.84-2.46-7.69-1.64-1.84-3.91-2.77-6.82-2.77-3.09,0-5.58,1.01-7.45,3.02s-2.81,4.84-2.81,8.46v27.38h-11.34v-47.34h10.55l.38,4.55c2.75-4.03,7.23-6.05,13.45-6.05,3.62,0,6.77.75,9.42,2.25s4.67,3.69,6.05,6.56c1.16-2.75,3.07-4.91,5.74-6.47,2.67-1.56,5.85-2.34,9.54-2.34,5.38,0,9.64,1.66,12.8,4.97,3.16,3.31,4.73,7.89,4.73,13.73Z" fill="#f2f4f9"/>
        <path d="M409.07,67.56h-36.28c.38,3.56,1.72,6.28,4.03,8.16,2.31,1.88,5.25,2.81,8.81,2.81,5.78,0,9.83-2.41,12.14-7.22l9.47,3.75c-1.78,4.16-4.59,7.41-8.41,9.75-3.83,2.34-8.23,3.52-13.2,3.52-7,0-12.68-2.29-17.04-6.87-4.36-4.58-6.54-10.59-6.54-18.02s2.2-13.48,6.59-18.14c4.39-4.66,10.13-6.98,17.23-6.98s12.58,2.3,16.83,6.89c4.25,4.59,6.38,10.64,6.38,18.14v4.22ZM372.98,59.59h24.56c-.22-3.84-1.38-6.77-3.49-8.79s-4.95-3.02-8.51-3.02-6.41,1.02-8.62,3.07c-2.22,2.05-3.53,4.96-3.94,8.74Z" fill="#f2f4f9"/>
        <path d="M482.15,70.75h-26.67l-5.77,16.31h-12.28l25.31-70.08h12.28l25.36,70.08h-12.56l-5.67-16.31ZM478.68,60.67l-9.8-28.03-9.89,28.03h19.69Z" fill="#f2f4f9"/>
        <path d="M522.63,79.19c2.34,0,4.2-.46,5.55-1.38,1.36-.92,2.04-2.29,2.04-4.1,0-2.53-1.7-4.22-5.11-5.06l-6.52-1.73c-8.97-2.44-13.45-7.05-13.45-13.83,0-4.34,1.58-7.89,4.73-10.64,3.16-2.75,7.41-4.12,12.75-4.12,4.78,0,8.79,1.09,12.02,3.28,3.23,2.19,5.21,5.19,5.93,9l-10.17,2.39c-.22-1.72-1.01-3.08-2.37-4.08-1.36-1-3.04-1.5-5.04-1.5s-3.67.51-4.92,1.52c-1.25,1.02-1.88,2.34-1.88,3.96,0,1.31.47,2.41,1.41,3.28.94.88,2.39,1.58,4.36,2.11l6.42,1.59c4.28,1.16,7.55,2.91,9.8,5.25s3.38,5.23,3.38,8.67c0,4.44-1.67,7.97-5.02,10.59s-7.95,3.94-13.83,3.94c-5.44,0-9.8-1.2-13.08-3.59s-5.22-5.62-5.81-9.68l10.36-1.83c.19,1.88,1.02,3.34,2.51,4.38,1.48,1.05,3.46,1.57,5.93,1.57Z" fill="#f2f4f9"/>
        <path d="M565.64,79.19c2.34,0,4.2-.46,5.55-1.38,1.36-.92,2.04-2.29,2.04-4.1,0-2.53-1.7-4.22-5.11-5.06l-6.52-1.73c-8.97-2.44-13.45-7.05-13.45-13.83,0-4.34,1.58-7.89,4.73-10.64,3.16-2.75,7.41-4.12,12.75-4.12,4.78,0,8.79,1.09,12.02,3.28,3.23,2.19,5.21,5.19,5.93,9l-10.17,2.39c-.22-1.72-1.01-3.08-2.37-4.08-1.36-1-3.04-1.5-5.04-1.5s-3.67.51-4.92,1.52c-1.25,1.02-1.88,2.34-1.88,3.96,0,1.31.47,2.41,1.41,3.28.94.88,2.39,1.58,4.36,2.11l6.42,1.59c4.28,1.16,7.55,2.91,9.8,5.25s3.38,5.23,3.38,8.67c0,4.44-1.67,7.97-5.02,10.59s-7.95,3.94-13.83,3.94c-5.44,0-9.8-1.2-13.08-3.59s-5.22-5.62-5.81-9.68l10.36-1.83c.19,1.88,1.02,3.34,2.51,4.38,1.48,1.05,3.46,1.57,5.93,1.57Z" fill="#f2f4f9"/>
        <path d="M591.77,23.31c0-2.03.7-3.73,2.09-5.11,1.39-1.38,3.09-2.06,5.09-2.06s3.65.7,5.04,2.11c1.39,1.41,2.09,3.09,2.09,5.06s-.7,3.66-2.09,5.09c-1.39,1.42-3.07,2.13-5.04,2.13s-3.66-.71-5.06-2.13c-1.41-1.42-2.11-3.12-2.11-5.09ZM604.62,39.72v47.34h-11.34v-47.34h11.34Z" fill="#f2f4f9"/>
        <path d="M632.06,79.19c2.34,0,4.2-.46,5.55-1.38,1.36-.92,2.04-2.29,2.04-4.1,0-2.53-1.7-4.22-5.11-5.06l-6.52-1.73c-8.97-2.44-13.45-7.05-13.45-13.83,0-4.34,1.58-7.89,4.73-10.64,3.16-2.75,7.41-4.12,12.75-4.12,4.78,0,8.79,1.09,12.02,3.28,3.23,2.19,5.21,5.19,5.93,9l-10.17,2.39c-.22-1.72-1.01-3.08-2.37-4.08-1.36-1-3.04-1.5-5.04-1.5s-3.67.51-4.92,1.52c-1.25,1.02-1.88,2.34-1.88,3.96,0,1.31.47,2.41,1.41,3.28.94.88,2.39,1.58,4.36,2.11l6.42,1.59c4.28,1.16,7.55,2.91,9.8,5.25s3.38,5.23,3.38,8.67c0,4.44-1.67,7.97-5.02,10.59s-7.95,3.94-13.83,3.94c-5.44,0-9.8-1.2-13.08-3.59s-5.22-5.62-5.81-9.68l10.36-1.83c.19,1.88,1.02,3.34,2.51,4.38,1.48,1.05,3.46,1.57,5.93,1.57Z" fill="#f2f4f9"/>
        <path d="M684.87,87.06c-3.25.72-6,1.08-8.25,1.08-4.78,0-8.51-1.31-11.18-3.94s-4.01-6.53-4.01-11.72v-23.16h-7.26v-9.61h7.26v-14.77h11.25v14.77h10.92v9.61h-10.92v21.14c0,5.13,1.98,7.69,5.95,7.69,1.28,0,2.88-.33,4.78-.98l1.45,9.89Z" fill="#f2f4f9"/>
        <path d="M722.86,87.06c-.38-1.53-.64-3.33-.8-5.39-1.38,2.03-3.32,3.65-5.84,4.85-2.52,1.2-5.43,1.8-8.74,1.8-5.19,0-9.34-1.38-12.47-4.15s-4.69-6.51-4.69-11.23,1.54-8.24,4.62-10.85c3.08-2.61,7.29-3.91,12.63-3.91h14.2v-1.83c0-2.97-.87-5.19-2.6-6.66-1.73-1.47-4.16-2.2-7.29-2.2-5.53,0-9.5,2.31-11.91,6.94l-8.25-4.83c4-7.53,10.92-11.3,20.77-11.3,5.97,0,10.86,1.53,14.67,4.59,3.84,3.09,5.77,8.08,5.77,14.95v18.84c0,5.34.28,8.8.84,10.36h-10.92ZM721.88,66.02h-11.67c-2.66,0-4.72.61-6.19,1.83s-2.2,2.89-2.2,5.02.75,3.91,2.25,5.06c1.5,1.16,3.64,1.73,6.42,1.73,3.34,0,6.08-1.05,8.2-3.16s3.19-5.24,3.19-9.4v-1.08Z" fill="#f2f4f9"/>
        <path d="M787.43,57.86v29.2h-11.3v-26.77c0-4.5-1.06-7.58-3.19-9.23-2.03-1.66-4.41-2.48-7.12-2.48-3.28,0-6.02,1.05-8.2,3.14-2.19,2.09-3.28,5.08-3.28,8.95v26.39h-11.34v-47.34h10.64l.38,5.11c1.34-2,3.3-3.59,5.86-4.76s5.36-1.76,8.39-1.76c6.12,0,10.85,1.7,14.18,5.09,3.33,3.39,4.99,8.21,4.99,14.46Z" fill="#f2f4f9"/>
        <path d="M823.65,87.06c-3.25.72-6,1.08-8.25,1.08-4.78,0-8.51-1.31-11.18-3.94s-4.01-6.53-4.01-11.72v-23.16h-7.27v-9.61h7.27v-14.77h11.25v14.77h10.92v9.61h-10.92v21.14c0,5.13,1.98,7.69,5.95,7.69,1.28,0,2.88-.33,4.78-.98l1.45,9.89Z" fill="#f2f4f9"/>
        <path d="M917.91,16.98l-26.48,70.08h-12.28l-26.77-70.08h12.94l19.97,53.58,19.88-53.58h12.75Z" fill="#f2f4f9"/>
        <path d="M938.33,38.41c7.25,0,13.16,2.33,17.72,6.98,4.56,4.66,6.84,10.64,6.84,17.95s-2.28,13.25-6.84,17.91c-4.56,4.66-10.47,6.98-17.72,6.98s-13.25-2.33-17.81-6.98c-4.56-4.66-6.84-10.62-6.84-17.91s2.28-13.34,6.84-17.98,10.5-6.96,17.81-6.96ZM938.33,78.02c3.88,0,7.02-1.37,9.45-4.1,2.42-2.73,3.63-6.29,3.63-10.66s-1.21-7.91-3.63-10.62c-2.42-2.7-5.57-4.05-9.45-4.05s-7.17,1.35-9.61,4.05c-2.44,2.7-3.66,6.24-3.66,10.62s1.22,7.93,3.66,10.66c2.44,2.74,5.64,4.1,9.61,4.1Z" fill="#f2f4f9"/>
        <path d="M970.37,23.31c0-2.03.7-3.73,2.09-5.11,1.39-1.38,3.09-2.06,5.09-2.06s3.65.7,5.04,2.11,2.09,3.09,2.09,5.06-.7,3.66-2.09,5.09c-1.39,1.42-3.07,2.13-5.04,2.13s-3.66-.71-5.06-2.13c-1.41-1.42-2.11-3.12-2.11-5.09ZM983.21,39.72v47.34h-11.34v-47.34h11.34Z" fill="#f2f4f9"/>
        <path d="M1015.86,38.31c5.38,0,10.03,1.32,13.97,3.96,3.94,2.64,6.58,6.18,7.92,10.62l-9.8,3.94c-.81-2.53-2.3-4.54-4.48-6.02-2.17-1.48-4.65-2.23-7.43-2.23-4,0-7.18,1.34-9.54,4.03-2.36,2.69-3.54,6.27-3.54,10.73s1.18,8.09,3.54,10.69c2.36,2.59,5.54,3.89,9.54,3.89,2.84,0,5.35-.72,7.52-2.16,2.17-1.44,3.66-3.38,4.48-5.81l9.7,3.66c-1.59,4.56-4.37,8.16-8.32,10.78s-8.51,3.94-13.66,3.94c-7.19,0-13.02-2.3-17.48-6.91-4.47-4.61-6.7-10.63-6.7-18.07s2.23-13.55,6.68-18.14,10.32-6.89,17.6-6.89Z" fill="#f2f4f9"/>
        <path d="M1090.42,67.56h-36.28c.38,3.56,1.72,6.28,4.03,8.16s5.25,2.81,8.81,2.81c5.78,0,9.83-2.41,12.14-7.22l9.47,3.75c-1.78,4.16-4.59,7.41-8.41,9.75s-8.23,3.52-13.2,3.52c-7,0-12.68-2.29-17.04-6.87-4.36-4.58-6.54-10.59-6.54-18.02s2.2-13.48,6.59-18.14c4.39-4.66,10.13-6.98,17.23-6.98s12.58,2.3,16.83,6.89,6.38,10.64,6.38,18.14v4.22ZM1054.32,59.59h24.56c-.22-3.84-1.38-6.77-3.49-8.79s-4.95-3.02-8.51-3.02-6.41,1.02-8.62,3.07c-2.22,2.05-3.53,4.96-3.94,8.74Z" fill="#f2f4f9"/>
      </g>
      <g>
        <path d="M1159.19,55.95c0,2.96-.89,5.33-2.68,7.14-1.78,1.8-4.21,2.71-7.29,2.71h-5.84v9.88h-5.96v-29.47h11.88c3.09,0,5.5.87,7.26,2.61s2.63,4.12,2.63,7.14ZM1152.9,55.83c0-1.25-.41-2.28-1.22-3.1-.81-.81-1.99-1.22-3.53-1.22h-4.77v9.08h4.77c1.55,0,2.73-.44,3.54-1.32s1.21-2.03,1.21-3.45Z" fill="#f2f4f9"/>
        <path d="M1172.95,55.48c.75,0,1.54.09,2.36.27v5.23c-.72-.18-1.46-.27-2.25-.27-1.65,0-2.95.52-3.88,1.56-.93,1.04-1.4,2.49-1.4,4.36v9.04h-5.8v-19.88h5.31l.31,2.25c.39-.83,1.06-1.47,2.01-1.9.95-.44,2.06-.65,3.32-.65Z" fill="#f2f4f9"/>
        <path d="M1196.26,67.66h-14.77c.16,1.21.67,2.13,1.53,2.75s1.94.94,3.23.94c2.14,0,3.63-.87,4.47-2.6l4.77,1.84c-.72,1.74-1.9,3.12-3.54,4.11s-3.54,1.49-5.69,1.49c-2.97,0-5.39-.97-7.27-2.9s-2.81-4.46-2.81-7.59.94-5.68,2.82-7.64,4.33-2.93,7.33-2.93,5.4.97,7.21,2.9,2.71,4.49,2.71,7.67v1.95ZM1181.62,63.76h8.85c-.09-1.28-.51-2.25-1.26-2.92-.75-.67-1.74-1.01-2.98-1.01s-2.29.33-3.07,1.01c-.78.67-1.3,1.64-1.54,2.92Z" fill="#f2f4f9"/>
        <path d="M1218.62,55.75l-8.32,19.92h-5.61l-7.85-19.92h6.17l4.63,13.12,5.1-13.12h5.88Z" fill="#f2f4f9"/>
        <path d="M1221.62,51.43c-.65-.64-.98-1.43-.98-2.36s.33-1.73.98-2.36c.65-.64,1.45-.96,2.38-.96s1.69.32,2.32.96c.64.64.96,1.43.96,2.36s-.32,1.68-.97,2.33c-.64.66-1.42.99-2.31.99s-1.73-.32-2.38-.96ZM1226.85,55.75v19.92h-5.72v-19.92h5.72Z" fill="#f2f4f9"/>
        <path d="M1250.12,67.66h-14.77c.16,1.21.67,2.13,1.53,2.75s1.94.94,3.23.94c2.14,0,3.63-.87,4.47-2.6l4.77,1.84c-.72,1.74-1.9,3.12-3.54,4.11s-3.54,1.49-5.69,1.49c-2.97,0-5.39-.97-7.27-2.9s-2.81-4.46-2.81-7.59.94-5.68,2.82-7.64,4.33-2.93,7.33-2.93,5.4.97,7.21,2.9,2.71,4.49,2.71,7.67v1.95ZM1235.47,63.76h8.85c-.09-1.28-.51-2.25-1.26-2.92-.75-.67-1.74-1.01-2.98-1.01s-2.29.33-3.07,1.01c-.78.67-1.3,1.64-1.54,2.92Z" fill="#f2f4f9"/>
        <path d="M1283.39,55.75l-6.99,19.92h-5.29l-3.79-11.48-3.89,11.48h-5.55l-6.64-19.92h6.19l3.32,11.64,3.71-11.64h5.8l3.54,11.84,3.55-11.84h6.04Z" fill="#f2f4f9"/>
        <path d="M1315.41,70.07v5.61h-18.55v-29.47h18.55v5.66h-12.6v6.29h11.19v5.27h-11.19v6.64h12.6Z" fill="#f2f4f9"/>
        <path d="M1335.28,75.67c-.07-.35-.16-1.1-.29-2.25-.64.87-1.52,1.55-2.66,2.04s-2.38.73-3.73.73c-3.02,0-5.46-.91-7.3-2.71-1.85-1.81-2.77-4.4-2.77-7.77,0-3.14.97-5.68,2.9-7.64s4.38-2.93,7.33-2.93c1.22,0,2.39.21,3.49.62s1.99,1.01,2.67,1.79v-11.88h5.68v24.77c0,.73.04,1.71.12,2.95.08,1.25.16,2.01.23,2.29h-5.66ZM1334.75,65.63c0-1.6-.49-2.89-1.46-3.88-.98-.98-2.23-1.47-3.77-1.47s-2.8.49-3.78,1.47c-.98.98-1.47,2.28-1.47,3.88s.49,2.95,1.46,3.93,2.24,1.46,3.79,1.46,2.81-.49,3.78-1.46,1.46-2.29,1.46-3.93Z" fill="#f2f4f9"/>
        <path d="M1345.8,51.43c-.65-.64-.98-1.43-.98-2.36s.33-1.73.98-2.36c.65-.64,1.45-.96,2.38-.96s1.69.32,2.32.96c.64.64.96,1.43.96,2.36s-.32,1.68-.97,2.33c-.64.66-1.42.99-2.31.99s-1.73-.32-2.38-.96ZM1351.03,55.75v19.92h-5.72v-19.92h5.72Z" fill="#f2f4f9"/>
        <path d="M1367.29,75.67c-1.38.32-2.64.49-3.79.49-2.23,0-3.96-.59-5.2-1.78-1.24-1.19-1.86-2.98-1.86-5.39v-8.36h-3.03v-4.88h3.03v-6.15h5.64v6.15h4.51v4.88h-4.51v7.21c-.04,2.19.79,3.28,2.48,3.28.55,0,1.22-.14,2.03-.41l.68,4.96Z" fill="#f2f4f9"/>
        <path d="M1371.39,51.43c-.65-.64-.98-1.43-.98-2.36s.33-1.73.98-2.36c.65-.64,1.45-.96,2.38-.96s1.69.32,2.32.96c.64.64.96,1.43.96,2.36s-.32,1.68-.97,2.33c-.64.66-1.42.99-2.31.99s-1.73-.32-2.38-.96ZM1376.62,55.75v19.92h-5.72v-19.92h5.72Z" fill="#f2f4f9"/>
        <path d="M1390.32,55.18c3.14,0,5.67.97,7.6,2.91,1.93,1.94,2.89,4.46,2.89,7.58s-.96,5.64-2.89,7.58c-1.93,1.94-4.46,2.91-7.6,2.91s-5.71-.97-7.63-2.91c-1.92-1.94-2.88-4.47-2.88-7.58s.96-5.64,2.88-7.58c1.92-1.94,4.46-2.91,7.63-2.91ZM1390.32,71.06c1.42,0,2.56-.5,3.43-1.49s1.3-2.31,1.3-3.94-.43-2.89-1.3-3.88c-.87-.98-2.01-1.47-3.43-1.47s-2.62.49-3.5,1.46-1.31,2.27-1.31,3.89.44,2.94,1.33,3.94,2.04,1.49,3.48,1.49Z" fill="#f2f4f9"/>
        <path d="M1423.05,63.39v12.29h-5.68v-10.96c0-1.72-.4-2.88-1.19-3.48-.77-.61-1.62-.92-2.56-.92-1.07,0-2.06.32-2.97.96-.89.61-1.33,1.76-1.33,3.44v10.96h-5.66v-19.92h5.39l.16,1.8c.56-.74,1.34-1.33,2.35-1.76s2.11-.64,3.29-.64c2.63,0,4.66.72,6.07,2.17s2.13,3.47,2.13,6.07Z" fill="#f2f4f9"/>
      </g>
      <rect x="1121" y="34" width="320" height="54" rx="16" ry="16" fill="none" stroke="#f2f4f9" stroke-miterlimit="10" stroke-width="4"/>
    </g>
  </g>
</svg>